<svg width="149" height="23" viewBox="0 0 149 23" fill="none" xmlns="http://www.w3.org/2000/svg">
<path d="M145.788 5.81538C145.552 5.95809 145.476 6.26542 145.618 6.50183C145.761 6.73824 146.068 6.8142 146.305 6.6715L145.788 5.81538ZM141.062 9.54418C141.309 9.42079 141.409 9.1205 141.286 8.87346C141.162 8.62641 140.862 8.52617 140.615 8.64956L141.062 9.54418ZM135.24 11.118C134.986 11.2255 134.867 11.5188 134.974 11.7732C135.082 12.0276 135.375 12.1467 135.629 12.0392L135.24 11.118ZM130.055 14.2126C130.315 14.1192 130.45 13.8329 130.357 13.573C130.263 13.3131 129.977 13.1781 129.717 13.2715L130.055 14.2126ZM124.105 15.1298C123.841 15.2101 123.692 15.4895 123.772 15.7537C123.853 16.0178 124.132 16.1668 124.396 16.0865L124.105 15.1298ZM118.647 17.6902C118.914 17.6221 119.076 17.35 119.008 17.0824C118.94 16.8148 118.668 16.653 118.4 16.7211L118.647 17.6902ZM112.632 18.0542C112.362 18.1105 112.188 18.3753 112.244 18.6456C112.301 18.9159 112.565 19.0894 112.836 19.0331L112.632 18.0542ZM106.96 20.1276C107.232 20.0828 107.417 19.8255 107.372 19.553C107.327 19.2806 107.07 19.0961 106.797 19.1409L106.96 20.1276ZM100.946 19.982C100.672 20.0158 100.477 20.2653 100.511 20.5394C100.545 20.8135 100.794 21.0083 101.068 20.9745L100.946 19.982ZM95.1352 21.5854C95.4104 21.5625 95.615 21.3209 95.5921 21.0457C95.5693 20.7705 95.3277 20.566 95.0525 20.5888L95.1352 21.5854ZM89.132 20.9643C88.8561 20.9764 88.6423 21.2099 88.6545 21.4858C88.6666 21.7616 88.9001 21.9754 89.176 21.9633L89.132 20.9643ZM83.2087 22.1118C83.4848 22.1102 83.7073 21.885 83.7057 21.6089C83.7041 21.3327 83.4789 21.1102 83.2028 21.1118L83.2087 22.1118ZM77.2853 21.0363C77.0093 21.0276 76.7785 21.2444 76.7699 21.5204C76.7612 21.7964 76.978 22.0271 77.254 22.0358L77.2853 21.0363ZM71.3029 21.7399C71.5784 21.7586 71.817 21.5505 71.8357 21.275C71.8545 20.9995 71.6463 20.7609 71.3708 20.7422L71.3029 21.7399ZM65.4685 20.2337C65.1938 20.2051 64.948 20.4046 64.9194 20.6792C64.8907 20.9539 65.0902 21.1997 65.3648 21.2283L65.4685 20.2337ZM59.448 20.5057C59.7214 20.544 59.9742 20.3533 60.0125 20.0799C60.0508 19.8064 59.8601 19.5537 59.5866 19.5154L59.448 20.5057ZM53.7326 18.5919C53.4606 18.5442 53.2015 18.726 53.1537 18.998C53.106 19.27 53.2878 19.5292 53.5598 19.5769L53.7326 18.5919ZM47.7071 18.4471C47.9773 18.504 48.2425 18.3311 48.2994 18.0609C48.3563 17.7907 48.1834 17.5255 47.9131 17.4686L47.7071 18.4471ZM42.134 16.1506C41.8658 16.0847 41.595 16.2488 41.5292 16.517C41.4633 16.7851 41.6274 17.0559 41.8955 17.1217L42.134 16.1506ZM36.1304 15.6065C36.3963 15.681 36.6723 15.5258 36.7468 15.2599C36.8213 14.994 36.6661 14.718 36.4002 14.6435L36.1304 15.6065ZM30.7161 12.953C30.4527 12.8701 30.1719 13.0164 30.0891 13.2798C30.0062 13.5433 30.1525 13.824 30.4159 13.9069L30.7161 12.953ZM24.7556 12.0287C25.0163 12.1196 25.3014 11.9821 25.3924 11.7213C25.4834 11.4606 25.3458 11.1755 25.0851 11.0845L24.7556 12.0287ZM19.51 9.04358C19.2521 8.94477 18.963 9.0737 18.8642 9.33156C18.7654 9.58942 18.8943 9.87856 19.1522 9.97737L19.51 9.04358ZM13.6196 7.76339C13.8745 7.86972 14.1673 7.74931 14.2736 7.49446C14.3799 7.23961 14.2595 6.94682 14.0047 6.84049L13.6196 7.76339ZM8.57515 4.48364C8.32343 4.37011 8.02733 4.48214 7.9138 4.73387C7.80027 4.98559 7.91229 5.28169 8.16401 5.39522L8.57515 4.48364ZM2.77376 2.87344C3.02225 2.99389 3.32133 2.89009 3.44178 2.64161C3.56222 2.39311 3.45844 2.09403 3.20995 1.97359L2.77376 2.87344ZM148.257 4.23984C147.49 4.75863 146.667 5.28495 145.788 5.81538L146.305 6.6715C147.197 6.13271 148.035 5.59715 148.817 5.06814L148.257 4.23984ZM140.615 8.64956C138.949 9.48175 137.155 10.3088 135.24 11.118L135.629 12.0392C137.563 11.2221 139.376 10.3861 141.062 9.54418L140.615 8.64956ZM129.717 13.2715C127.927 13.9143 126.056 14.5362 124.105 15.1298L124.396 16.0865C126.363 15.4882 128.25 14.861 130.055 14.2126L129.717 13.2715ZM118.4 16.7211C116.537 17.1953 114.613 17.6414 112.632 18.0542L112.836 19.0331C114.831 18.6174 116.769 18.168 118.647 17.6902L118.4 16.7211ZM106.797 19.1409C104.893 19.4546 102.942 19.7363 100.946 19.982L101.068 20.9745C103.077 20.7271 105.042 20.4435 106.96 20.1276L106.797 19.1409ZM95.0525 20.5888C93.1157 20.7496 91.1417 20.8758 89.132 20.9643L89.176 21.9633C91.1987 21.8743 93.1856 21.7472 95.1352 21.5854L95.0525 20.5888ZM83.2028 21.1118C81.26 21.1233 79.2871 21.099 77.2853 21.0363L77.254 22.0358C79.2683 22.0989 81.2536 22.1234 83.2087 22.1118L83.2028 21.1118ZM71.3708 20.7422C69.4279 20.6101 67.4602 20.4413 65.4685 20.2337L65.3648 21.2283C67.3685 21.4372 69.3482 21.6069 71.3029 21.7399L71.3708 20.7422ZM59.5866 19.5154C57.6557 19.245 55.7041 18.9378 53.7326 18.5919L53.5598 19.5769C55.5427 19.9248 57.5057 20.2338 59.448 20.5057L59.5866 19.5154ZM47.9131 17.4686C46.0038 17.0664 44.0771 16.6276 42.134 16.1506L41.8955 17.1217C43.8495 17.6014 45.7869 18.0427 47.7071 18.4471L47.9131 17.4686ZM36.4002 14.6435C34.5197 14.1166 32.6248 13.5536 30.7161 12.953L30.4159 13.9069C32.3347 14.5107 34.2397 15.0767 36.1304 15.6065L36.4002 14.6435ZM25.0851 11.0845C23.2386 10.4401 21.3801 9.76017 19.51 9.04358L19.1522 9.97737C21.0316 10.6976 22.8996 11.3809 24.7556 12.0287L25.0851 11.0845ZM14.0047 6.84049C12.2046 6.08952 10.3947 5.30426 8.57515 4.48364L8.16401 5.39522C9.99215 6.21973 11.8108 7.00876 13.6196 7.76339L14.0047 6.84049ZM3.20995 1.97359C2.31817 1.54132 1.42425 1.10049 0.528261 0.650968L0.0798276 1.54479C0.979891 1.99635 1.87789 2.43919 2.77376 2.87344L3.20995 1.97359Z" fill="#B8926B"/>
</svg>
