<svg width="148" height="35" viewBox="0 0 148 35" fill="none" xmlns="http://www.w3.org/2000/svg">
<path d="M3.46478 32.317C3.66823 32.1303 3.68181 31.814 3.4951 31.6105C3.30839 31.4071 2.9921 31.3935 2.78864 31.5802L3.46478 32.317ZM7.35865 27.7258C7.14095 27.8957 7.10218 28.2099 7.27207 28.4276C7.44195 28.6453 7.75615 28.6841 7.97385 28.5142L7.35865 27.7258ZM12.7531 25.0299C12.9812 24.8742 13.0398 24.5631 12.8841 24.335C12.7283 24.107 12.4172 24.0484 12.1892 24.2041L12.7531 25.0299ZM17.2224 20.9695C16.9862 21.1125 16.9106 21.4199 17.0536 21.6562C17.1965 21.8924 17.504 21.968 17.7402 21.825L17.2224 20.9695ZM22.8727 18.8919C23.1158 18.7607 23.2065 18.4574 23.0753 18.2144C22.9442 17.9714 22.6409 17.8807 22.3979 18.0118L22.8727 18.8919ZM27.7156 15.3008C27.4668 15.4206 27.3621 15.7194 27.4819 15.9682C27.6017 16.217 27.9005 16.3217 28.1493 16.2019L27.7156 15.3008ZM33.5393 13.7526C33.7931 13.6438 33.9107 13.3499 33.8019 13.0961C33.6932 12.8423 33.3993 12.7247 33.1454 12.8334L33.5393 13.7526ZM38.688 10.5966C38.4298 10.6945 38.2999 10.9833 38.3979 11.2414C38.4958 11.4996 38.7845 11.6295 39.0427 11.5316L38.688 10.5966ZM44.6116 9.54794C44.8736 9.46056 45.0151 9.17738 44.9277 8.91542C44.8404 8.65347 44.5572 8.51194 44.2952 8.59932L44.6116 9.54794ZM49.9896 6.82527C49.7244 6.90217 49.5718 7.17952 49.6487 7.44474C49.7256 7.70995 50.0029 7.86261 50.2681 7.7857L49.9896 6.82527ZM55.9969 6.24486C56.2649 6.17831 56.4282 5.9071 56.3617 5.6391C56.2951 5.37109 56.0239 5.20778 55.7559 5.27433L55.9969 6.24486ZM61.5755 3.94665C61.3052 4.00295 61.1317 4.26775 61.188 4.53809C61.2443 4.80843 61.5091 4.98194 61.7794 4.92564L61.5755 3.94665ZM67.5946 3.82744C67.8668 3.78124 68.0501 3.52309 68.0039 3.25084C67.9577 2.97859 67.6995 2.79534 67.4273 2.84153L67.5946 3.82744ZM73.319 1.95267C73.0452 1.98887 72.8527 2.24015 72.8889 2.51391C72.9251 2.78767 73.1764 2.98024 73.4501 2.94403L73.319 1.95267ZM79.3362 2.27319C79.6111 2.24684 79.8125 2.00264 79.7862 1.72775C79.7598 1.45287 79.5156 1.2514 79.2408 1.27775L79.3362 2.27319ZM85.1835 0.81395C84.9079 0.830594 84.6979 1.06754 84.7146 1.34318C84.7312 1.61882 84.9682 1.82878 85.2438 1.81213L85.1835 0.81395ZM91.1647 1.5576C91.4408 1.55049 91.6588 1.32095 91.6517 1.0449C91.6446 0.768846 91.415 0.550822 91.139 0.557926L91.1647 1.5576ZM97.0996 0.505903C96.8234 0.503651 96.5978 0.725675 96.5955 1.00181C96.5932 1.27794 96.8153 1.50362 97.0914 1.50587L97.0996 0.505903ZM103.017 1.65287C103.293 1.66428 103.526 1.44986 103.537 1.17395C103.549 0.898048 103.334 0.665133 103.058 0.653724L103.017 1.65287ZM109.01 0.996919C108.734 0.976569 108.494 1.18332 108.474 1.45871C108.454 1.7341 108.66 1.97385 108.936 1.9942L109.01 0.996919ZM114.842 2.52523C115.117 2.5543 115.363 2.35524 115.392 2.08063C115.421 1.80603 115.222 1.55985 114.947 1.53079L114.842 2.52523ZM120.868 2.25048C120.594 2.21294 120.342 2.40428 120.304 2.67786C120.267 2.95144 120.458 3.20365 120.732 3.24119L120.868 2.25048ZM126.601 4.13725C126.873 4.18302 127.131 3.99936 127.177 3.72704C127.222 3.45472 127.039 3.19685 126.766 3.15108L126.601 4.13725ZM132.628 4.22519C132.357 4.17146 132.094 4.34748 132.04 4.61835C131.986 4.88921 132.162 5.15235 132.433 5.20608L132.628 4.22519ZM138.222 6.44063C138.491 6.50205 138.759 6.33358 138.821 6.06436C138.882 5.79513 138.714 5.52709 138.445 5.46568L138.222 6.44063ZM144.227 6.86968C143.96 6.80084 143.687 6.96183 143.619 7.22925C143.55 7.49668 143.711 7.76927 143.978 7.83811L144.227 6.86968ZM1.35663 34.3504C2.00562 33.69 2.70855 33.011 3.46478 32.317L2.78864 31.5802C2.02051 32.2851 1.30514 32.9761 0.643367 33.6496L1.35663 34.3504ZM7.97385 28.5142C9.44213 27.3684 11.0361 26.2025 12.7531 25.0299L12.1892 24.2041C10.4553 25.3882 8.84419 26.5666 7.35865 27.7258L7.97385 28.5142ZM17.7402 21.825C19.3669 20.8404 21.0783 19.86 22.8727 18.8919L22.3979 18.0118C20.589 18.9877 18.8633 19.9763 17.2224 20.9695L17.7402 21.825ZM28.1493 16.2019C29.882 15.3679 31.679 14.5496 33.5393 13.7526L33.1454 12.8334C31.2717 13.6362 29.4614 14.4606 27.7156 15.3008L28.1493 16.2019ZM39.0427 11.5316C40.8477 10.8467 42.7043 10.1841 44.6116 9.54794L44.2952 8.59932C42.375 9.23981 40.5056 9.90699 38.688 10.5966L39.0427 11.5316ZM50.2681 7.7857C52.1347 7.24442 54.0446 6.72965 55.9969 6.24486L55.7559 5.27433C53.7909 5.76227 51.8686 6.2804 49.9896 6.82527L50.2681 7.7857ZM61.7794 4.92564C63.6814 4.52951 65.62 4.1625 67.5946 3.82744L67.4273 2.84153C65.4404 3.17869 63.4896 3.548 61.5755 3.94665L61.7794 4.92564ZM73.4501 2.94403C75.3807 2.68869 77.3429 2.46428 79.3362 2.27319L79.2408 1.27775C77.2355 1.46999 75.2614 1.69576 73.319 1.95267L73.4501 2.94403ZM85.2438 1.81213C87.19 1.69461 89.1638 1.60909 91.1647 1.5576L91.139 0.557926C89.1265 0.609717 87.1412 0.695734 85.1835 0.81395L85.2438 1.81213ZM97.0914 1.50587C99.0426 1.52179 101.018 1.57021 103.017 1.65287L103.058 0.653724C101.048 0.570603 99.0618 0.521909 97.0996 0.505903L97.0914 1.50587ZM108.936 1.9942C110.883 2.13812 112.852 2.31463 114.842 2.52523L114.947 1.53079C112.947 1.31907 110.968 1.14162 109.01 0.996919L108.936 1.9942ZM120.732 3.24119C122.669 3.50706 124.626 3.80531 126.601 4.13725L126.766 3.15108C124.782 2.81748 122.815 2.51772 120.868 2.25048L120.732 3.24119ZM132.433 5.20608C134.346 5.58558 136.276 5.99672 138.222 6.44063L138.445 5.46568C136.489 5.01966 134.55 4.60654 132.628 4.22519L132.433 5.20608ZM143.978 7.83811C144.938 8.08515 145.901 8.34016 146.869 8.60328L147.131 7.63834C146.16 7.37403 145.192 7.11785 144.227 6.86968L143.978 7.83811Z" fill="#B8926B"/>
</svg>
